<svg width="43" height="16" viewBox="0 0 43 16" fill="none" xmlns="http://www.w3.org/2000/svg">
<g id="Group 1">
<path id="i" d="M42.6309 5.80273C42.6309 5.88086 42.6113 5.96289 42.5723 6.04883C42.5332 6.13086 42.4824 6.20508 42.4199 6.27148C42.3613 6.33789 42.2949 6.39258 42.2207 6.43555C42.1465 6.47852 42.0723 6.5 41.998 6.5C41.9316 6.5 41.8809 6.47656 41.8457 6.42969C41.8105 6.37891 41.793 6.31836 41.793 6.24805C41.793 6.18555 41.8047 6.11133 41.8281 6.02539C41.8516 5.93945 41.8867 5.85938 41.9336 5.78516C41.9805 5.70703 42.0371 5.64062 42.1035 5.58594C42.1699 5.53125 42.2461 5.50391 42.332 5.50391C42.4141 5.50391 42.4844 5.53516 42.543 5.59766C42.6016 5.66016 42.6309 5.72852 42.6309 5.80273ZM41.5352 7.10352C41.4844 7.20508 41.4121 7.33984 41.3184 7.50781C41.2285 7.67188 41.1309 7.85352 41.0254 8.05273C40.9199 8.24805 40.8125 8.45508 40.7031 8.67383C40.5938 8.88867 40.4941 9.09961 40.4043 9.30664C40.3184 9.50977 40.248 9.70117 40.1934 9.88086C40.1387 10.0605 40.1113 10.2129 40.1113 10.3379C40.1113 10.4512 40.1348 10.5293 40.1816 10.5723C40.2285 10.6113 40.2949 10.6309 40.3809 10.6309C40.541 10.6309 40.6973 10.5781 40.8496 10.4727C41.002 10.3672 41.1523 10.2305 41.3008 10.0625C41.4531 9.89062 41.6016 9.69531 41.7461 9.47656C41.8906 9.25781 42.0352 9.03711 42.1797 8.81445L42.3906 8.97852C42.2773 9.18164 42.1484 9.39844 42.0039 9.62891C41.8633 9.85938 41.7051 10.0742 41.5293 10.2734C41.3535 10.4688 41.1602 10.6309 40.9492 10.7598C40.7383 10.8887 40.5078 10.9531 40.2578 10.9531C40.0234 10.9531 39.8438 10.8828 39.7188 10.7422C39.5938 10.6016 39.5312 10.4199 39.5312 10.1973C39.5312 9.93555 39.5918 9.66211 39.7129 9.37695C39.834 9.0918 39.9844 8.81055 40.1641 8.5332C40.3477 8.25195 40.5449 7.98242 40.7559 7.72461C40.9707 7.4668 41.168 7.23242 41.3477 7.02148L41.5352 7.10352Z" fill="black"/>
<path id="J" d="M39.7559 10.0625C39.5918 10.0195 39.4277 9.97852 39.2637 9.93945C39.1035 9.89648 38.9395 9.85742 38.7715 9.82227C38.5723 10.2285 38.3613 10.627 38.1387 11.0176C37.916 11.4082 37.6797 11.793 37.4297 12.1719C37.2383 12.4609 37.0234 12.7441 36.7852 13.0215C36.5508 13.2988 36.3008 13.5586 36.0352 13.8008C35.7734 14.0469 35.5 14.2715 35.2148 14.4746C34.9336 14.6816 34.6484 14.8594 34.3594 15.0078C34.0742 15.1602 33.7891 15.2773 33.5039 15.3594C33.2227 15.4414 32.9492 15.4824 32.6836 15.4824C32.4453 15.4824 32.2051 15.4395 31.9629 15.3535C31.7207 15.2715 31.5039 15.1465 31.3125 14.9785C31.1172 14.8105 30.959 14.5996 30.8379 14.3457C30.7168 14.0957 30.6562 13.8008 30.6562 13.4609C30.6562 13.2852 30.6777 13.0996 30.7207 12.9043C30.7598 12.709 30.8262 12.5078 30.9199 12.3008C31.0137 12.0938 31.1348 11.8809 31.2832 11.6621C31.4316 11.4473 31.6133 11.2266 31.8281 11C32.1133 10.6992 32.4336 10.4395 32.7891 10.2207C33.1406 10.002 33.5156 9.82227 33.9141 9.68164C34.3125 9.53711 34.7285 9.43164 35.1621 9.36523C35.5957 9.29492 36.0352 9.25977 36.4805 9.25977C36.7734 9.25977 37.0645 9.27344 37.3535 9.30078C37.6465 9.32812 37.9395 9.36719 38.2324 9.41797C38.4395 8.98828 38.627 8.56055 38.7949 8.13477C38.9629 7.70898 39.1094 7.28906 39.2344 6.875C39.4219 6.24219 39.5566 5.69336 39.6387 5.22852C39.7207 4.76367 39.7617 4.36133 39.7617 4.02148C39.7617 3.73242 39.7383 3.48437 39.6914 3.27734C39.6445 3.06641 39.584 2.88867 39.5098 2.74414C39.4355 2.5957 39.3496 2.47656 39.252 2.38672C39.1543 2.29297 39.0547 2.22266 38.9531 2.17578C38.8555 2.125 38.7578 2.0918 38.6602 2.07617C38.5664 2.05664 38.4824 2.04688 38.4082 2.04688C38.0957 2.04688 37.8164 2.12109 37.5703 2.26953C37.3242 2.41797 37.1152 2.62695 36.9434 2.89648C36.7754 3.16602 36.6465 3.49219 36.5566 3.875C36.4668 4.25391 36.4219 4.67578 36.4219 5.14062C36.4219 5.50391 36.4531 5.83984 36.5156 6.14844C36.5781 6.45703 36.6562 6.73828 36.75 6.99219C36.8438 7.24609 36.9453 7.4707 37.0547 7.66602C37.168 7.86133 37.2715 8.02539 37.3652 8.1582C37.4629 8.29102 37.543 8.39258 37.6055 8.46289C37.668 8.5332 37.7012 8.56836 37.7051 8.56836L37.5234 8.75586C37.2734 8.54102 37.0391 8.30273 36.8203 8.04102C36.6016 7.7793 36.4121 7.49805 36.252 7.19727C36.0918 6.89648 35.9648 6.57812 35.8711 6.24219C35.7773 5.90234 35.7305 5.54688 35.7305 5.17578C35.7305 4.75391 35.791 4.33789 35.9121 3.92773C36.0332 3.51758 36.209 3.15039 36.4395 2.82617C36.6699 2.49805 36.9531 2.23438 37.2891 2.03516C37.625 1.83594 38.0078 1.73633 38.4375 1.73633C38.5352 1.73633 38.6484 1.74609 38.7773 1.76562C38.9062 1.78516 39.0391 1.82617 39.1758 1.88867C39.3125 1.94727 39.4473 2.03125 39.5801 2.14062C39.7168 2.25 39.8359 2.39648 39.9375 2.58008C40.043 2.75977 40.127 2.98242 40.1895 3.24805C40.2559 3.50977 40.2891 3.82422 40.2891 4.19141C40.2891 4.35938 40.2812 4.53906 40.2656 4.73047C40.25 4.91797 40.2266 5.12109 40.1953 5.33984C40.0859 6.06641 39.9219 6.78125 39.7031 7.48438C39.4844 8.18359 39.2168 8.87305 38.9004 9.55273C39.0645 9.58789 39.2246 9.625 39.3809 9.66406C39.5371 9.70312 39.6914 9.74414 39.8438 9.78711L39.7559 10.0625ZM32.6777 15.1777C32.9707 15.1934 33.2754 15.1367 33.5918 15.0078C33.9082 14.8789 34.2266 14.6914 34.5469 14.4453C34.8672 14.2031 35.1855 13.9102 35.502 13.5664C35.8223 13.2227 36.1328 12.8457 36.4336 12.4355C36.7383 12.0254 37.0293 11.5898 37.3066 11.1289C37.5879 10.668 37.8496 10.1953 38.0918 9.71094C37.8926 9.68359 37.6934 9.66211 37.4941 9.64648C37.2988 9.63086 37.0977 9.62305 36.8906 9.62305C36.2812 9.62305 35.7168 9.69141 35.1973 9.82812C34.6816 9.96484 34.2109 10.1465 33.7852 10.373C33.3633 10.5996 32.9902 10.8594 32.666 11.1523C32.3418 11.4453 32.0703 11.7461 31.8516 12.0547C31.6328 12.3672 31.4668 12.6758 31.3535 12.9805C31.2402 13.2891 31.1836 13.5703 31.1836 13.8242C31.1836 14.0234 31.2188 14.2051 31.2891 14.3691C31.3555 14.5371 31.4531 14.6797 31.582 14.7969C31.707 14.918 31.8633 15.0117 32.0508 15.0781C32.2344 15.1445 32.4434 15.1777 32.6777 15.1777Z" fill="black"/>
<path id="n" d="M24.8926 7.95898C24.8926 8.12695 24.8633 8.29883 24.8047 8.47461C24.7461 8.64648 24.6719 8.82031 24.582 8.99609C24.4922 9.16797 24.3965 9.33789 24.2949 9.50586C24.1934 9.67383 24.0977 9.83594 24.0078 9.99219C23.918 10.1484 23.8438 10.2988 23.7852 10.4434C23.7266 10.584 23.6973 10.7129 23.6973 10.8301C23.6973 10.9199 23.7168 10.9805 23.7559 11.0117C23.7949 11.043 23.8379 11.0586 23.8848 11.0586C24.0332 11.0586 24.1992 10.9863 24.3828 10.8418C24.5664 10.6934 24.752 10.5078 24.9395 10.2852C25.1309 10.0625 25.3203 9.82031 25.5078 9.55859C25.6953 9.29688 25.8652 9.04883 26.0176 8.81445L26.2285 8.97852C26.1973 9.02539 26.1406 9.11914 26.0586 9.25977C25.9766 9.39648 25.875 9.55469 25.7539 9.73438C25.6328 9.91016 25.4961 10.0957 25.3438 10.291C25.1953 10.4824 25.0352 10.6602 24.8633 10.8242C24.6914 10.9844 24.5137 11.1172 24.3301 11.2227C24.1504 11.3281 23.9688 11.3809 23.7852 11.3809C23.6797 11.3809 23.584 11.3633 23.498 11.3281C23.4121 11.293 23.3379 11.2441 23.2754 11.1816C23.2168 11.1191 23.1699 11.0469 23.1348 10.9648C23.0996 10.8789 23.082 10.7891 23.082 10.6953C23.082 10.543 23.1152 10.3789 23.1816 10.2031C23.252 10.0234 23.3379 9.83984 23.4395 9.65234C23.541 9.46484 23.6523 9.27734 23.7734 9.08984C23.8945 8.89844 24.0059 8.7168 24.1074 8.54492C24.209 8.37305 24.293 8.21484 24.3594 8.07031C24.4297 7.92188 24.4648 7.79492 24.4648 7.68945C24.4648 7.56836 24.4316 7.4668 24.3652 7.38477C24.3027 7.30273 24.2129 7.26172 24.0957 7.26172C23.9707 7.26172 23.8262 7.31445 23.6621 7.41992C23.498 7.52148 23.3145 7.67188 23.1113 7.87109C22.9082 8.07031 22.6855 8.31641 22.4434 8.60938C22.2051 8.89844 21.9453 9.22852 21.6641 9.59961C21.5039 9.81445 21.3477 10.0215 21.1953 10.2207C21.1289 10.3066 21.0625 10.3945 20.9961 10.4844C20.9297 10.5742 20.8633 10.6641 20.7969 10.7539C20.7305 10.8398 20.668 10.9219 20.6094 11C20.5508 11.082 20.498 11.1523 20.4512 11.2109L19.9355 11L20.6211 10.0566C20.7188 9.92383 20.8184 9.78125 20.9199 9.62891C21.0215 9.47656 21.1211 9.32031 21.2188 9.16016C21.3203 8.99609 21.416 8.83203 21.5059 8.66797C21.5957 8.50391 21.6797 8.34375 21.7578 8.1875C21.8711 7.95312 21.9492 7.75977 21.9922 7.60742C22.0352 7.45117 22.0566 7.32617 22.0566 7.23242C22.0566 7.12695 22.0371 7.05859 21.998 7.02734C21.959 6.99219 21.9043 6.97461 21.834 6.97461C21.7598 6.97461 21.6738 7.01367 21.5762 7.0918C21.4824 7.16602 21.3848 7.26367 21.2832 7.38477C21.1816 7.50195 21.0781 7.63672 20.9727 7.78906C20.8711 7.9375 20.7734 8.08594 20.6797 8.23438C20.5859 8.38281 20.498 8.52344 20.416 8.65625C20.334 8.78906 20.2656 8.89648 20.2109 8.97852L20 8.81445C20.1992 8.50195 20.3789 8.2168 20.5391 7.95898C20.7031 7.69727 20.8594 7.47266 21.0078 7.28516C21.1602 7.09766 21.3066 6.95312 21.4473 6.85156C21.5918 6.74609 21.7441 6.69336 21.9043 6.69336C21.9902 6.69336 22.0723 6.71094 22.1504 6.74609C22.2324 6.78125 22.3027 6.83398 22.3613 6.9043C22.4238 6.9707 22.4727 7.05273 22.5078 7.15039C22.543 7.24805 22.5605 7.36133 22.5605 7.49023C22.5605 7.5918 22.5488 7.69727 22.5254 7.80664C22.6973 7.63867 22.8574 7.5 23.0059 7.39062C23.1543 7.28125 23.291 7.19531 23.416 7.13281C23.541 7.06641 23.6562 7.01953 23.7617 6.99219C23.8672 6.96484 23.9629 6.95117 24.0488 6.95117C24.123 6.95117 24.209 6.96484 24.3066 6.99219C24.4043 7.01953 24.4961 7.07031 24.582 7.14453C24.668 7.21875 24.7402 7.32227 24.7988 7.45508C24.8613 7.58398 24.8926 7.75195 24.8926 7.95898Z" fill="black"/>
<path id="o" d="M18.3047 9.40625C18.3203 9.41016 18.3359 9.41211 18.3516 9.41211C18.3672 9.41211 18.3848 9.41211 18.4043 9.41211C18.5137 9.41211 18.6133 9.40234 18.7031 9.38281C18.793 9.35938 18.875 9.32422 18.9492 9.27734C19.0273 9.23047 19.1016 9.16992 19.1719 9.0957C19.2422 9.01758 19.3105 8.92383 19.377 8.81445L19.5879 8.97852C19.4004 9.24414 19.207 9.42969 19.0078 9.53516C18.8086 9.64062 18.5977 9.69336 18.375 9.69336C18.293 9.69336 18.2207 9.68555 18.1582 9.66992C17.9902 9.95117 17.8105 10.1914 17.6191 10.3906C17.4277 10.5859 17.2324 10.7461 17.0332 10.8711C16.834 10.9961 16.6367 11.0859 16.4414 11.1406C16.2461 11.1992 16.0645 11.2285 15.8965 11.2285C15.7246 11.2285 15.5645 11.1973 15.416 11.1348C15.2715 11.0762 15.1465 10.9902 15.041 10.877C14.9355 10.7637 14.8535 10.6289 14.7949 10.4727C14.7363 10.3164 14.707 10.1406 14.707 9.94531C14.707 9.75 14.7383 9.55078 14.8008 9.34766C14.8633 9.14453 14.9473 8.94336 15.0527 8.74414C15.1621 8.54492 15.2891 8.35352 15.4336 8.16992C15.5781 7.98242 15.7344 7.80859 15.9023 7.64844C16.0703 7.48828 16.2441 7.34375 16.4238 7.21484C16.6035 7.08594 16.7832 6.98047 16.9629 6.89844L17.1504 7.14453C16.9434 7.29297 16.7324 7.48047 16.5176 7.70703C16.3066 7.93359 16.1133 8.18164 15.9375 8.45117C15.7656 8.7207 15.623 9.00195 15.5098 9.29492C15.4004 9.58398 15.3457 9.86523 15.3457 10.1387C15.3457 10.3848 15.4004 10.5762 15.5098 10.7129C15.6191 10.8457 15.7852 10.9121 16.0078 10.9121C16.1797 10.9121 16.3496 10.877 16.5176 10.8066C16.6855 10.7363 16.8496 10.6406 17.0098 10.5195C17.1699 10.3984 17.3242 10.2559 17.4727 10.0918C17.6211 9.92383 17.7617 9.74609 17.8945 9.55859C17.7812 9.49219 17.6816 9.4043 17.5957 9.29492C17.5098 9.18164 17.4375 9.05469 17.3789 8.91406C17.3203 8.76953 17.2754 8.61523 17.2441 8.45117C17.2168 8.28711 17.2031 8.11914 17.2031 7.94727C17.2031 7.77539 17.2246 7.61328 17.2676 7.46094C17.3105 7.30859 17.3691 7.17578 17.4434 7.0625C17.5215 6.94531 17.6113 6.85352 17.7129 6.78711C17.8145 6.7207 17.9258 6.6875 18.0469 6.6875C18.1562 6.6875 18.2539 6.7168 18.3398 6.77539C18.4258 6.83008 18.498 6.9082 18.5566 7.00977C18.6152 7.10742 18.6602 7.22461 18.6914 7.36133C18.7227 7.49805 18.7383 7.64453 18.7383 7.80078C18.7383 7.91797 18.7285 8.04688 18.709 8.1875C18.6895 8.32812 18.6602 8.4707 18.6211 8.61523C18.5859 8.75586 18.541 8.89648 18.4863 9.03711C18.4355 9.17383 18.375 9.29688 18.3047 9.40625ZM17.5078 7.94727C17.5078 8.06055 17.5176 8.18359 17.5371 8.31641C17.5566 8.44922 17.5879 8.57812 17.6309 8.70312C17.6738 8.82812 17.7285 8.94531 17.7949 9.05469C17.8613 9.16016 17.9434 9.24414 18.041 9.30664C18.1113 9.16992 18.1699 9.03125 18.2168 8.89062C18.2676 8.74609 18.3086 8.60742 18.3398 8.47461C18.375 8.3418 18.3984 8.21875 18.4102 8.10547C18.4258 7.98828 18.4336 7.88672 18.4336 7.80078C18.4336 7.68359 18.4238 7.57617 18.4043 7.47852C18.3848 7.38086 18.3574 7.29688 18.3223 7.22656C18.291 7.15234 18.25 7.0957 18.1992 7.05664C18.1523 7.01367 18.0996 6.99219 18.041 6.99219C17.9629 6.99219 17.8906 7.01953 17.8242 7.07422C17.7578 7.125 17.7012 7.19531 17.6543 7.28516C17.6074 7.37109 17.5703 7.47266 17.543 7.58984C17.5195 7.70312 17.5078 7.82227 17.5078 7.94727Z" fill="black"/>
<path id="W" d="M13.6699 3.88672C13.4746 4.53516 13.2598 5.15039 13.0254 5.73242C12.791 6.31445 12.5684 6.83008 12.3574 7.2793C12.1152 7.80273 11.8711 8.28711 11.625 8.73242C11.4258 9.08398 11.2578 9.39062 11.1211 9.65234C10.9883 9.91406 10.8809 10.1387 10.7988 10.3262C10.7168 10.5098 10.6582 10.6641 10.623 10.7891C10.5879 10.9102 10.5703 11.0098 10.5703 11.0879C10.5703 11.1699 10.5879 11.2324 10.623 11.2754C10.6582 11.3223 10.6992 11.3574 10.7461 11.3809C10.7969 11.4043 10.8457 11.418 10.8926 11.4219C10.9434 11.4297 10.9844 11.4336 11.0156 11.4336C11.1523 11.4336 11.3145 11.3945 11.502 11.3164C11.6934 11.2422 11.8984 11.1367 12.1172 11C12.3398 10.8594 12.5723 10.6914 12.8145 10.4961C13.0566 10.2969 13.2969 10.0742 13.5352 9.82812C13.7734 9.58203 14.0039 9.31641 14.2266 9.03125C14.4531 8.74219 14.6602 8.4375 14.8477 8.11719C15.1484 7.59375 15.3887 7.10938 15.5684 6.66406C15.4551 6.44141 15.3711 6.21289 15.3164 5.97852C15.2617 5.74023 15.2344 5.51562 15.2344 5.30469C15.2344 5 15.2812 4.75586 15.375 4.57227C15.4727 4.38867 15.6074 4.29688 15.7793 4.29688C15.873 4.29688 15.9512 4.32031 16.0137 4.36719C16.0801 4.41406 16.1328 4.47461 16.1719 4.54883C16.2109 4.62305 16.2383 4.70508 16.2539 4.79492C16.2734 4.88086 16.2832 4.9668 16.2832 5.05273C16.2832 5.23633 16.2559 5.44727 16.2012 5.68555C16.1504 5.92383 16.0742 6.18164 15.9727 6.45898C15.875 6.73242 15.7539 7.02344 15.6094 7.33203C15.4648 7.63672 15.2988 7.94922 15.1113 8.26953C14.9238 8.58984 14.7148 8.89844 14.4844 9.19531C14.2578 9.48828 14.0195 9.76367 13.7695 10.0215C13.5234 10.2793 13.2715 10.5156 13.0137 10.7305C12.7598 10.9414 12.5117 11.1211 12.2695 11.2695C12.0312 11.4219 11.8027 11.5391 11.584 11.6211C11.3691 11.707 11.1797 11.75 11.0156 11.75C10.707 11.75 10.4648 11.6797 10.2891 11.5391C10.1133 11.3984 10.0254 11.1738 10.0254 10.8652C10.0254 10.6973 10.0469 10.5293 10.0898 10.3613C10.1367 10.1934 10.2031 10.0117 10.2891 9.81641C10.3789 9.62109 10.4883 9.4082 10.6172 9.17773C10.7461 8.94336 10.8945 8.67969 11.0625 8.38672C10.6719 8.90625 10.25 9.41016 9.79688 9.89844C9.34766 10.3828 8.86719 10.8164 8.35547 11.1992C8.125 11.3711 7.91406 11.5137 7.72266 11.627C7.53125 11.7441 7.35547 11.8379 7.19531 11.9082C7.03906 11.9785 6.89648 12.0273 6.76758 12.0547C6.63867 12.0859 6.52148 12.1016 6.41602 12.1016C6.26367 12.1016 6.13086 12.0801 6.01758 12.0371C5.9082 11.9941 5.81641 11.9355 5.74219 11.8613C5.67188 11.791 5.61914 11.7051 5.58398 11.6035C5.55273 11.5059 5.53711 11.3984 5.53711 11.2812C5.53711 11.0859 5.56641 10.9004 5.625 10.7246C5.68359 10.5488 5.76953 10.3691 5.88281 10.1855C6.01172 9.98242 6.16406 9.75781 6.33984 9.51172C6.51953 9.26562 6.70508 9.00781 6.89648 8.73828C7.0918 8.46875 7.2832 8.19336 7.4707 7.91211C7.66211 7.63086 7.83203 7.35156 7.98047 7.07422C8.13281 6.79688 8.25391 6.52734 8.34375 6.26562C8.4375 6.00391 8.48438 5.75781 8.48438 5.52734C8.48438 5.16406 8.41211 4.83203 8.26758 4.53125C8.12695 4.23047 7.92383 3.97266 7.6582 3.75781C7.39258 3.54297 7.07031 3.37695 6.69141 3.25977C6.31641 3.14258 5.89453 3.08398 5.42578 3.08398C4.78125 3.08398 4.18945 3.17773 3.65039 3.36523C3.11133 3.55273 2.64648 3.8125 2.25586 4.14453C1.86914 4.47266 1.56641 4.86133 1.34766 5.31055C1.13281 5.75586 1.02539 6.23633 1.02539 6.75195C1.02539 7.06836 1.07422 7.35742 1.17188 7.61914C1.27344 7.87695 1.41406 8.09961 1.59375 8.28711C1.77734 8.47461 1.99805 8.62109 2.25586 8.72656C2.51758 8.82812 2.80859 8.87891 3.12891 8.87891C3.5 8.87891 3.84375 8.81445 4.16016 8.68555C4.47656 8.55273 4.76367 8.37305 5.02148 8.14648C5.2832 7.91992 5.51562 7.6543 5.71875 7.34961C5.92188 7.04102 6.09375 6.71094 6.23438 6.35938L6.49805 6.45312C6.11914 7.39453 5.61719 8.10742 4.99219 8.5918C4.36719 9.07227 3.625 9.3125 2.76562 9.3125C2.40234 9.3125 2.07227 9.25195 1.77539 9.13086C1.47852 9.00586 1.22461 8.83398 1.01367 8.61523C0.802734 8.39258 0.638672 8.12891 0.521484 7.82422C0.408203 7.51562 0.351562 7.17773 0.351562 6.81055C0.351562 6.31445 0.433594 5.86914 0.597656 5.47461C0.761719 5.08008 0.978516 4.73438 1.24805 4.4375C1.52148 4.13672 1.83008 3.88086 2.17383 3.66992C2.52148 3.45898 2.87695 3.28711 3.24023 3.1543C3.60352 3.02148 3.95898 2.92578 4.30664 2.86719C4.6543 2.80469 4.9668 2.77344 5.24414 2.77344C5.76758 2.77344 6.25195 2.83789 6.69727 2.9668C7.14258 3.0918 7.52734 3.28125 7.85156 3.53516C8.17969 3.78516 8.43555 4.0957 8.61914 4.4668C8.80273 4.83789 8.89453 5.26758 8.89453 5.75586C8.89453 6.11133 8.82617 6.50586 8.68945 6.93945C8.55664 7.36914 8.32422 7.83203 7.99219 8.32812C7.6875 8.78516 7.41016 9.18164 7.16016 9.51758C6.91016 9.85352 6.69531 10.1445 6.51562 10.3906C6.33984 10.6328 6.20312 10.8359 6.10547 11C6.00781 11.1641 5.95898 11.3008 5.95898 11.4102C5.95898 11.5234 6 11.6152 6.08203 11.6855C6.16406 11.7559 6.27734 11.791 6.42188 11.791C6.62891 11.791 6.87891 11.7207 7.17188 11.5801C7.46875 11.4395 7.80078 11.2324 8.16797 10.959C8.53125 10.6895 8.87695 10.3926 9.20508 10.0684C9.53711 9.74414 9.84961 9.4082 10.1426 9.06055C10.4395 8.70898 10.7188 8.35156 10.9805 7.98828C11.2422 7.625 11.4844 7.26953 11.707 6.92188C11.9297 6.57031 12.1328 6.23242 12.3164 5.9082C12.5 5.58008 12.6621 5.2793 12.8027 5.00586C12.9434 4.72852 13.0625 4.48438 13.1602 4.27344C13.2578 4.05859 13.332 3.89063 13.3828 3.76953L13.6699 3.88672ZM15.7266 6.25977C15.8164 6.00977 15.8809 5.7832 15.9199 5.58008C15.959 5.37695 15.9785 5.20312 15.9785 5.05859C15.9785 5.03125 15.9766 4.99219 15.9727 4.94141C15.9727 4.88672 15.9648 4.83594 15.9492 4.78906C15.9375 4.73828 15.918 4.69531 15.8906 4.66016C15.8633 4.62109 15.8262 4.60156 15.7793 4.60156C15.7129 4.60156 15.6562 4.66797 15.6094 4.80078C15.5664 4.93359 15.5449 5.0957 15.5449 5.28711C15.5449 5.43164 15.5586 5.58789 15.5859 5.75586C15.6133 5.91992 15.6602 6.08789 15.7266 6.25977Z" fill="black"/>
</g>
</svg>
